<svg width="18" height="24" viewBox="0 -2 18 24" fill="none" xmlns="http://www.w3.org/2000/svg">
<g filter="url(#filter0_d)">
<path d="M13.088 11.04C13.088 11.8613 12.7733 12.56 12.144 13.136C11.5147 13.7013 10.592 14.016 9.376 14.08V15.92H8.576V14.096C7.79733 14.0533 7.06133 13.904 6.368 13.648C5.68533 13.3813 5.14667 13.0453 4.752 12.64L5.216 11.728C5.58933 12.0907 6.07467 12.3947 6.672 12.64C7.28 12.8853 7.91467 13.0293 8.576 13.072V8.864C7.84 8.68267 7.22667 8.49067 6.736 8.288C6.24533 8.07467 5.83467 7.77067 5.504 7.376C5.184 6.97067 5.024 6.43733 5.024 5.776C5.024 4.95467 5.32267 4.26667 5.92 3.712C6.51733 3.14667 7.40267 2.816 8.576 2.72V0.879999H9.376V2.704C9.984 2.72533 10.5707 2.82667 11.136 3.008C11.712 3.17867 12.208 3.408 12.624 3.696L12.224 4.64C11.7867 4.36267 11.3227 4.144 10.832 3.984C10.3413 3.824 9.856 3.73333 9.376 3.712V7.952C10.1653 8.144 10.8107 8.34133 11.312 8.544C11.8133 8.736 12.2347 9.03467 12.576 9.44C12.9173 9.84533 13.088 10.3787 13.088 11.04ZM6.192 5.744C6.192 6.29867 6.39467 6.72 6.8 7.008C7.216 7.296 7.808 7.54133 8.576 7.744V3.744C7.78667 3.808 7.18933 4.02667 6.784 4.4C6.38933 4.76267 6.192 5.21067 6.192 5.744ZM9.376 13.072C10.2187 13.008 10.8533 12.8 11.28 12.448C11.7067 12.096 11.92 11.648 11.92 11.104C11.92 10.528 11.7013 10.096 11.264 9.808C10.8267 9.52 10.1973 9.27467 9.376 9.072V13.072Z" fill="#636363"/>
</g>
<defs>
<filter id="filter0_d" x="0.751953" y="0.880005" width="16.336" height="23.04" filterUnits="userSpaceOnUse" color-interpolation-filters="sRGB">
<feFlood flood-opacity="0" result="BackgroundImageFix"/>
<feColorMatrix in="SourceAlpha" type="matrix" values="0 0 0 0 0 0 0 0 0 0 0 0 0 0 0 0 0 0 127 0"/>
<feOffset dy="4"/>
<feGaussianBlur stdDeviation="2"/>
<feColorMatrix type="matrix" values="0 0 0 0 0 0 0 0 0 0 0 0 0 0 0 0 0 0 0.25 0"/>
<feBlend mode="normal" in2="BackgroundImageFix" result="effect1_dropShadow"/>
<feBlend mode="normal" in="SourceGraphic" in2="effect1_dropShadow" result="shape"/>
</filter>
</defs>
</svg>
