<svg width="27" height="18" viewBox="0 0 27 18" fill="none" xmlns="http://www.w3.org/2000/svg">
<g clip-path="url(#clip0)">
<path d="M0 0H27V18H0V0Z" fill="#3F9C35"/>
<path d="M0 0H27V12H0V0Z" fill="#ED2939"/>
<path d="M0 0H27V6H0V0Z" fill="#00B9E4"/>
<path d="M12.8251 11.7C14.5027 11.7 15.8626 10.4912 15.8626 8.99999C15.8626 7.50882 14.5027 6.29999 12.8251 6.29999C11.1475 6.29999 9.7876 7.50882 9.7876 8.99999C9.7876 10.4912 11.1475 11.7 12.8251 11.7Z" fill="white"/>
<path d="M13.5 11.25C14.898 11.25 16.0312 10.2426 16.0312 9C16.0312 7.75736 14.898 6.75 13.5 6.75C12.102 6.75 10.9688 7.75736 10.9688 9C10.9688 10.2426 12.102 11.25 13.5 11.25Z" fill="#ED2939"/>
<path d="M16.2 7.5L16.5248 8.30625L17.3939 7.93875L16.9804 8.715L17.8875 9L16.9804 9.28875L17.3939 10.0612L16.5248 9.69375L16.2 10.5L15.8751 9.69375L15.006 10.0612L15.4195 9.28875L14.5125 9L15.4195 8.71125L15.006 7.93875L15.8751 8.30625L16.2 7.5Z" fill="white"/>
</g>
<defs>
<clipPath id="clip0">
<rect width="27" height="18" fill="white"/>
</clipPath>
</defs>
</svg>
