<svg width="23" height="24" viewBox="0 0 23 24" fill="none" xmlns="http://www.w3.org/2000/svg">
<path d="M16.7597 20.1838C15.806 20.1838 15.0246 21.0122 15.0246 22.0355C15.0246 23.0466 15.806 23.875 16.7597 23.875C17.725 23.875 18.5064 23.0466 18.5064 22.0355C18.5064 21.0122 17.725 20.1838 16.7597 20.1838ZM3.83232 20.1838C2.87856 20.1838 2.09717 21.0122 2.09717 22.0355C2.09717 23.0466 2.87856 23.875 3.83232 23.875C4.79756 23.875 5.57895 23.0466 5.57895 22.0355C5.57895 21.0122 4.79756 20.1838 3.83232 20.1838ZM22.105 0.000142641L21.9879 0.0104313L19.2473 0.447777C18.8566 0.522089 18.5693 0.861976 18.5349 1.27618L18.3165 4.00502C18.2821 4.39607 17.9833 4.68845 17.6156 4.68845H2.09694C1.39598 4.68845 0.936342 4.94427 0.476702 5.50466C0.0170593 6.06505 -0.0633774 6.86908 0.040041 7.5988L1.13169 15.5904C1.33853 17.1266 2.57956 18.2583 4.03893 18.2583H16.5757C18.104 18.2583 19.368 17.017 19.4944 15.4089L20.5516 2.12894L22.2867 1.8122C22.7463 1.72692 23.0681 1.25181 22.9877 0.764517C22.9072 0.26626 22.4591 -0.0638808 21.9879 0.0104313L22.105 0.000142641ZM5.87749 9.19469H9.06051C9.54313 9.19469 9.92234 9.5967 9.92234 10.1084C9.92234 10.6078 9.54313 11.022 9.06051 11.022H5.87749C5.39487 11.022 5.01566 10.6078 5.01566 10.1084C5.01566 9.5967 5.39487 9.19469 5.87749 9.19469Z" fill="white"/>
</svg>
