<svg width="35" height="26" viewBox="0 0 35 26" fill="none" xmlns="http://www.w3.org/2000/svg">
<g filter="url(#filter0_d)">
<path d="M4 2H31V20H4V2Z" fill="#DE2910"/>
<path d="M7.24013 8.65999L9.06261 3.79999L10.8851 8.65999L6.02515 5.68999H12.1001L7.24013 8.65999Z" fill="#FFDE00"/>
<path d="M15.1447 3.89314L13.2691 4.26259L14.5202 2.96672L14.3975 4.71079L13.3567 3.16676L15.1447 3.89314Z" fill="#FFDE00"/>
<path d="M17.0376 6.02553L15.1477 5.71948L16.8662 4.95634L15.9922 6.5216L15.7065 4.7396L17.0376 6.02553Z" fill="#FFDE00"/>
<path d="M16.7618 9.01717L15.1766 8.05254L17.0959 7.9788L15.5796 9.09108L16.1364 7.36046L16.7618 9.01717Z" fill="#FFDE00"/>
<path d="M14.3777 10.9715L13.3347 9.53753L15.1371 10.1284L13.2552 10.6338L14.5207 9.22867L14.3777 10.9715Z" fill="#FFDE00"/>
</g>
<defs>
<filter id="filter0_d" x="0" y="0" width="35" height="26" filterUnits="userSpaceOnUse" color-interpolation-filters="sRGB">
<feFlood flood-opacity="0" result="BackgroundImageFix"/>
<feColorMatrix in="SourceAlpha" type="matrix" values="0 0 0 0 0 0 0 0 0 0 0 0 0 0 0 0 0 0 127 0"/>
<feOffset dy="2"/>
<feGaussianBlur stdDeviation="2"/>
<feColorMatrix type="matrix" values="0 0 0 0 0 0 0 0 0 0 0 0 0 0 0 0 0 0 0.21 0"/>
<feBlend mode="normal" in2="BackgroundImageFix" result="effect1_dropShadow"/>
<feBlend mode="normal" in="SourceGraphic" in2="effect1_dropShadow" result="shape"/>
</filter>
</defs>
</svg>
