<svg width="27" height="18" viewBox="0 0 27 18" fill="none" xmlns="http://www.w3.org/2000/svg">
    <path d="M0 0H27V18H0V0Z" fill="#DE2910"/>
    <path d="M3.24013 6.66005L5.06261 1.80005L6.88509 6.66005L2.02515 3.69005H8.10008L3.24013 6.66005Z" fill="#FFDE00"/>
    <path d="M11.1447 1.8932L9.26914 2.26265L10.5202 0.966777L10.3975 2.71085L9.35669 1.16682L11.1447 1.8932Z" fill="#FFDE00"/>
    <path d="M13.0376 4.02553L11.1477 3.71948L12.8662 2.95634L11.9922 4.5216L11.7065 2.7396L13.0376 4.02553Z" fill="#FFDE00"/>
    <path d="M12.7618 7.01717L11.1766 6.05254L13.0959 5.9788L11.5796 7.09108L12.1364 5.36046L12.7618 7.01717Z" fill="#FFDE00"/>
    <path d="M10.3777 8.97153L9.33468 7.53753L11.1371 8.12843L9.25518 8.63384L10.5207 7.22867L10.3777 8.97153Z" fill="#FFDE00"/>
</svg>
