<svg width="28" height="27" viewBox="0 0 28 27" fill="none" xmlns="http://www.w3.org/2000/svg">
<g filter="url(#filter0_d)">
<path d="M22.7344 14.8332L19.567 11.8242L17.1308 10.868C17.942 9.77214 18.3766 8.46473 18.375 7.125C18.375 3.52365 15.2909 0.59375 11.5 0.59375C7.7091 0.59375 4.625 3.52365 4.625 7.125C4.625 10.7264 7.7091 13.6563 11.5 13.6563C12.9225 13.6578 14.3101 13.2378 15.4695 12.4548L16.4734 14.763L19.6406 17.7721C19.8438 17.9651 20.0849 18.1182 20.3503 18.2226C20.6157 18.327 20.9002 18.3808 21.1874 18.3808C21.4747 18.3808 21.7592 18.3271 22.0246 18.2227C22.29 18.1182 22.5311 17.9652 22.7343 17.7722C22.9374 17.5792 23.0986 17.3501 23.2085 17.098C23.3184 16.8459 23.375 16.5756 23.375 16.3027C23.3751 16.0298 23.3185 15.7596 23.2086 15.5074C23.0986 15.2553 22.9375 15.0262 22.7344 14.8332ZM5.875 7.125C5.875 4.17852 8.39844 1.78125 11.5 1.78125C14.6016 1.78125 17.125 4.17852 17.125 7.125C17.125 10.0715 14.6016 12.4688 11.5 12.4688C8.39844 12.4688 5.875 10.0715 5.875 7.125ZM21.8504 16.9324C21.6745 17.0992 21.4361 17.1929 21.1875 17.1929C20.9389 17.1929 20.7005 17.0992 20.5246 16.9324L17.5335 14.0909L16.6001 11.9447L18.8594 12.8313L21.8505 15.6729C22.026 15.8401 22.1246 16.0665 22.1246 16.3027C22.1246 16.5388 22.026 16.7653 21.8504 16.9324Z" fill="#5E5E5E"/>
</g>
<defs>
<filter id="filter0_d" x="0" y="0" width="28" height="27" filterUnits="userSpaceOnUse" color-interpolation-filters="sRGB">
<feFlood flood-opacity="0" result="BackgroundImageFix"/>
<feColorMatrix in="SourceAlpha" type="matrix" values="0 0 0 0 0 0 0 0 0 0 0 0 0 0 0 0 0 0 127 0"/>
<feOffset dy="4"/>
<feGaussianBlur stdDeviation="2"/>
<feColorMatrix type="matrix" values="0 0 0 0 0 0 0 0 0 0 0 0 0 0 0 0 0 0 0.25 0"/>
<feBlend mode="normal" in2="BackgroundImageFix" result="effect1_dropShadow"/>
<feBlend mode="normal" in="SourceGraphic" in2="effect1_dropShadow" result="shape"/>
</filter>
</defs>
</svg>
