<svg width="20" height="19" viewBox="0 0 20 19" fill="none" xmlns="http://www.w3.org/2000/svg">
    <path d="M18.7344 14.8332L15.567 11.8242L13.1308 10.868C13.942 9.77214 14.3766 8.46473 14.375 7.125C14.375 3.52365 11.2909 0.59375 7.5 0.59375C3.7091 0.59375 0.625 3.52365 0.625 7.125C0.625 10.7264 3.7091 13.6563 7.5 13.6563C8.92251 13.6578 10.3101 13.2378 11.4695 12.4548L12.4734 14.763L15.6406 17.7721C15.8438 17.9651 16.0849 18.1182 16.3503 18.2226C16.6157 18.3271 16.9002 18.3808 17.1874 18.3808C17.4747 18.3808 17.7592 18.3271 18.0246 18.2227C18.29 18.1182 18.5311 17.9652 18.7343 17.7722C18.9374 17.5792 19.0986 17.3501 19.2085 17.098C19.3184 16.8459 19.375 16.5756 19.375 16.3027C19.3751 16.0298 19.3185 15.7596 19.2086 15.5074C19.0986 15.2553 18.9375 15.0262 18.7344 14.8332ZM1.875 7.125C1.875 4.17852 4.39844 1.78125 7.5 1.78125C10.6016 1.78125 13.125 4.17852 13.125 7.125C13.125 10.0715 10.6016 12.4688 7.5 12.4688C4.39844 12.4688 1.875 10.0715 1.875 7.125ZM17.8504 16.9324C17.6745 17.0992 17.4361 17.1929 17.1875 17.1929C16.9389 17.1929 16.7005 17.0992 16.5246 16.9324L13.5335 14.0909L12.6001 11.9447L14.8594 12.8313L17.8505 15.6729C18.026 15.8401 18.1246 16.0665 18.1246 16.3027C18.1246 16.5388 18.026 16.7653 17.8504 16.9324Z" fill="#5E5E5E"/>
</svg>
