<svg width="27" height="18" viewBox="0 0 27 18" fill="none" xmlns="http://www.w3.org/2000/svg">
<path d="M0 0H27V6H0V0Z" fill="#FF9933"/>
<path d="M0 5H27V11H0V5Z" fill="white"/>
<path d="M0 12H27V18H0V12Z" fill="#128807"/>
<path d="M13.5 11.4C14.9912 11.4 16.2 10.3255 16.2 8.99998C16.2 7.67449 14.9912 6.59998 13.5 6.59998C12.0089 6.59998 10.8 7.67449 10.8 8.99998C10.8 10.3255 12.0089 11.4 13.5 11.4Z" fill="#000088"/>
<path d="M13.5 11.1C14.8047 11.1 15.8625 10.1598 15.8625 8.99996C15.8625 7.84017 14.8047 6.89996 13.5 6.89996C12.1952 6.89996 11.1375 7.84017 11.1375 8.99996C11.1375 10.1598 12.1952 11.1 13.5 11.1Z" fill="white"/>
<path d="M13.5001 9.41996C13.761 9.41996 13.9726 9.23192 13.9726 8.99996C13.9726 8.768 13.761 8.57996 13.5001 8.57996C13.2391 8.57996 13.0276 8.768 13.0276 8.99996C13.0276 9.23192 13.2391 9.41996 13.5001 9.41996Z" fill="#000088"/>
<path d="M15.8263 9.38194C15.8928 9.38972 15.9538 9.3481 15.9626 9.28896C15.9714 9.22982 15.9245 9.17557 15.858 9.16778C15.7915 9.16 15.7304 9.20163 15.7217 9.26076C15.7129 9.3199 15.7598 9.37415 15.8263 9.38194Z" fill="#000088"/>
<path d="M13.4999 11.1L13.5809 9.83999L13.4999 9.23999L13.4189 9.83999L13.4999 11.1Z" fill="#000088"/>
</svg>
