<svg width="38" height="38" viewBox="0 0 38 38" fill="none" xmlns="http://www.w3.org/2000/svg">
<g filter="url(#filter0_d)">
<path d="M34 15C34 23.2843 27.2843 30 19 30C10.7157 30 4 23.2843 4 15C4 6.71573 10.7157 0 19 0C27.2843 0 34 6.71573 34 15Z" fill="white"/>
<path d="M18.9564 18.2125C19.9687 18.2115 20.9392 17.8477 21.655 17.2009C22.3708 16.5541 22.7734 15.6772 22.7745 14.7625V10.45C22.7745 9.535 22.3723 8.65748 21.6562 8.01048C20.9402 7.36348 19.969 7 18.9564 7C17.9437 7 16.9726 7.36348 16.2565 8.01048C15.5405 8.65748 15.1382 9.535 15.1382 10.45V14.7625C15.1393 15.6772 15.542 16.5541 16.2578 17.2009C16.9736 17.8477 17.9441 18.2115 18.9564 18.2125ZM16.4109 10.45C16.4109 9.84 16.6791 9.25499 17.1565 8.82365C17.6338 8.39232 18.2813 8.15 18.9564 8.15C19.6315 8.15 20.2789 8.39232 20.7563 8.82365C21.2336 9.25499 21.5018 9.84 21.5018 10.45V14.7625C21.5018 15.3725 21.2336 15.9575 20.7563 16.3888C20.2789 16.8202 19.6315 17.0625 18.9564 17.0625C18.2813 17.0625 17.6338 16.8202 17.1565 16.3888C16.6791 15.9575 16.4109 15.3725 16.4109 14.7625V10.45Z" fill="#646363"/>
<path d="M24.7273 12.7499V14.7624C24.7273 17.6159 22.158 19.9374 19 19.9374C15.842 19.9374 13.2727 17.6159 13.2727 14.7624V12.7499H12V14.7624C12 18.0562 14.801 20.7695 18.3636 21.061V24.2499H19.6364V21.061C23.199 20.7695 26 18.0562 26 14.7624V12.7499H24.7273Z" fill="#646363"/>
</g>
<defs>
<filter id="filter0_d" x="-4" y="0" width="42" height="38" filterUnits="userSpaceOnUse" color-interpolation-filters="sRGB">
<feFlood flood-opacity="0" result="BackgroundImageFix"/>
<feColorMatrix in="SourceAlpha" type="matrix" values="0 0 0 0 0 0 0 0 0 0 0 0 0 0 0 0 0 0 127 0"/>
<feOffset dy="4"/>
<feGaussianBlur stdDeviation="2"/>
<feColorMatrix type="matrix" values="0 0 0 0 0 0 0 0 0 0 0 0 0 0 0 0 0 0 0.25 0"/>
<feBlend mode="normal" in2="BackgroundImageFix" result="effect1_dropShadow"/>
<feBlend mode="normal" in="SourceGraphic" in2="effect1_dropShadow" result="shape"/>
</filter>
</defs>
</svg>
