<svg width="14" height="18" viewBox="0 0 14 18" fill="#FFFFFF" xmlns="http://www.w3.org/2000/svg">
<path d="M6.95637 11.2125C7.96866 11.2115 8.93917 10.8477 9.65497 10.2009C10.3708 9.5541 10.7734 8.67718 10.7745 7.7625V3.45C10.7745 2.535 10.3723 1.65748 9.65623 1.01048C8.94018 0.363481 7.96901 0 6.95637 0C5.94372 0 4.97255 0.363481 4.2565 1.01048C3.54046 1.65748 3.13818 2.535 3.13818 3.45V7.7625C3.13932 8.67718 3.54196 9.5541 4.25776 10.2009C4.97356 10.8477 5.94407 11.2115 6.95637 11.2125ZM4.41091 3.45C4.41091 2.84 4.67909 2.25499 5.15646 1.82365C5.63382 1.39232 6.28127 1.15 6.95637 1.15C7.63146 1.15 8.27891 1.39232 8.75627 1.82365C9.23364 2.25499 9.50182 2.84 9.50182 3.45V7.7625C9.50182 8.3725 9.23364 8.95751 8.75627 9.38884C8.27891 9.82018 7.63146 10.0625 6.95637 10.0625C6.28127 10.0625 5.63382 9.82018 5.15646 9.38884C4.67909 8.95751 4.41091 8.3725 4.41091 7.7625V3.45Z" fill="#646363"/>
<path d="M12.7273 5.74994V7.76244C12.7273 10.6159 10.158 12.9374 7 12.9374C3.84205 12.9374 1.27273 10.6159 1.27273 7.76244V5.74994H0V7.76244C0 11.0562 2.80095 13.7695 6.36364 14.061V17.2499H7.63636V14.061C11.199 13.7695 14 11.0562 14 7.76244V5.74994H12.7273Z" fill="#646363"/>
</svg>
