<svg width="27" height="18" viewBox="0 0 27 18" fill="none" xmlns="http://www.w3.org/2000/svg">
    <path fill-rule="evenodd" clip-rule="evenodd" d="M0 0H27V18H0V0Z" fill="#E30A17"/>
    <path fill-rule="evenodd" clip-rule="evenodd" d="M17.1702 9.28123C17.1702 11.7637 14.8668 13.7775 12.0233 13.7775C9.1799 13.7775 6.87646 11.7637 6.87646 9.27748C6.87646 6.79122 9.1799 4.78497 12.0233 4.78497C14.8668 4.78497 17.1702 6.79872 17.1702 9.28123Z" fill="white"/>
    <path fill-rule="evenodd" clip-rule="evenodd" d="M17.4232 9.28125C17.4232 11.2687 15.5838 12.8775 13.3099 12.8775C11.036 12.8775 9.19238 11.265 9.19238 9.2775C9.19238 7.29 11.036 5.685 13.3099 5.685C15.5838 5.685 17.4274 7.29375 17.4274 9.28125H17.4232Z" fill="#E30A17"/>
    <path fill-rule="evenodd" clip-rule="evenodd" d="M18.1698 7.18124L18.1276 8.84249L16.3853 9.26249L18.1065 9.80624L18.0643 11.3325L19.1823 10.14L20.8782 10.665L19.8995 9.38624L21.0934 8.11499L19.2582 8.56499L18.1698 7.17749V7.18124Z" fill="white"/>
</svg>
