<svg width="27" height="18" viewBox="0 0 27 18" fill="none" xmlns="http://www.w3.org/2000/svg">
<g clip-path="url(#clip0)">
<path fill-rule="evenodd" clip-rule="evenodd" d="M1 0H27V1.38516H1V0ZM1 2.77031H27V4.15547H1V2.77031ZM1 5.53711H27V6.92578H1V5.53711ZM1 8.30742H27V9.69258H1V8.30742ZM1 11.0777H27V12.4629H1V11.0777ZM1 13.8445H27V15.2297H1V13.8445ZM1 16.6148H27V18H1V16.6148Z" fill="#BD3D44"/>
<path fill-rule="evenodd" clip-rule="evenodd" d="M1 1.38513H27V2.77029H1V1.38513ZM1 4.15544H27V5.53709H1V4.15544ZM1 6.92224H27V8.3074H1V6.92224ZM1 9.69255H27V11.0777H1V9.69255ZM1 12.4629H27V13.848H1V12.4629ZM1 15.2297H27V16.6148H1V15.2297Z" fill="white"/>
<path fill-rule="evenodd" clip-rule="evenodd" d="M1 0H11.9068V9.69258H1V0Z" fill="#192F5D"/>
<path fill-rule="evenodd" clip-rule="evenodd" d="M1.90801 0.414856L2.00892 0.798059H2.32847L2.07059 1.03361L2.1687 1.42032L1.90801 1.18126L1.65013 1.41681L1.74823 1.03361L1.48755 0.798059H1.81271L1.90801 0.414856ZM3.7272 0.414856L3.82531 0.798059H4.14767L3.88698 1.03361L3.98509 1.42032L3.7272 1.18126L3.46652 1.41681L3.56463 1.03361L3.30674 0.798059H3.62629L3.7272 0.414856ZM5.5436 0.414856L5.64451 0.798059H5.96125L5.70337 1.03361L5.80148 1.42032L5.54079 1.18126L5.28291 1.41681L5.38102 1.03361L5.12033 0.798059H5.44268L5.5436 0.414856ZM7.36279 0.414856L7.4609 0.798059H7.78325L7.52256 1.03361L7.62348 1.42032L7.36279 1.18126L7.1021 1.41681L7.20301 1.03361L6.94233 0.798059H7.26188L7.36279 0.414856ZM9.17918 0.414856L9.28009 0.798059H9.59964L9.34176 1.03361L9.43987 1.42032L9.17918 1.18126L8.9213 1.41681L9.01941 1.03361L8.76152 0.798059H9.08107L9.17918 0.414856ZM10.9984 0.414856L11.0965 0.798059H11.4188L11.1582 1.03361L11.2591 1.42032L10.9984 1.18126L10.7377 1.41681L10.8386 1.03361L10.5779 0.798059H10.9003L10.9984 0.414856ZM2.81901 1.38517L2.91712 1.76837H3.23947L2.97878 2.00392L3.07409 2.38712L2.82181 2.15157L2.56113 2.38712L2.65363 2.00392L2.40135 1.76837H2.7209L2.81901 1.38517ZM4.6354 1.38517L4.73631 1.76837H5.05586L4.79517 2.00392L4.89609 2.38712L4.6354 2.15157L4.37471 2.38712L4.47562 2.00392L4.21494 1.76837H4.53729L4.6354 1.38517ZM6.45459 1.38517L6.5527 1.76837H6.87506L6.61437 2.00392L6.71248 2.38712L6.45459 2.15157L6.19391 2.38712L6.29202 2.00392L6.03413 1.76837H6.35368L6.45459 1.38517ZM8.27099 1.38517L8.3719 1.76837H8.69145L8.43076 2.00392L8.53167 2.38712L8.27099 2.15157L8.0131 2.38712L8.11121 2.00392L7.85052 1.76837H8.17568L8.27099 1.38517ZM10.0902 1.38517L10.1883 1.76837H10.5106L10.25 2.00392L10.3481 2.38712L10.0902 2.15157L9.82949 2.38712L9.9276 2.00392L9.66972 1.76837H9.98927L10.0902 1.38517ZM1.90801 2.35196L2.00892 2.7422H2.32847L2.07059 2.97775L2.1687 3.36095L1.90801 3.12189L1.65013 3.36095L1.74823 2.97423L1.48755 2.73868H1.81271L1.90801 2.35196ZM3.7272 2.35196L3.82531 2.73868H4.14767L3.88698 2.97423L3.98509 3.35743L3.7272 3.11837L3.46652 3.35743L3.56463 2.97071L3.30674 2.73517H3.62629L3.7272 2.35196ZM5.5436 2.35196L5.64451 2.73868H5.96125L5.70337 2.97423L5.80148 3.35743L5.54079 3.11837L5.28291 3.35743L5.38102 2.97071L5.12033 2.73517H5.44268L5.5436 2.35196ZM7.36279 2.35196L7.4609 2.73868H7.78325L7.52256 2.97423L7.62348 3.35743L7.36279 3.11837L7.1021 3.35743L7.20301 2.97071L6.94233 2.73517H7.26188L7.36279 2.35196ZM9.17918 2.35196L9.28009 2.73868H9.59964L9.34176 2.97423L9.43987 3.35743L9.17918 3.11837L8.9213 3.35743L9.01941 2.97071L8.76152 2.73517H9.08107L9.17918 2.35196ZM10.9984 2.35196L11.0965 2.73868H11.4188L11.1582 2.97423L11.2591 3.35743L10.9984 3.11837L10.7377 3.35743L10.8386 2.97071L10.5779 2.73517H10.9003L10.9984 2.35196ZM2.81901 3.32228L2.91712 3.70548H3.23947L2.97878 3.94103L3.07689 4.32774L2.81901 4.08868L2.55832 4.32423L2.65643 3.94103L2.39855 3.70548H2.7181L2.81901 3.32228ZM4.6354 3.32228L4.73631 3.70548H5.05586L4.79517 3.94103L4.89609 4.32774L4.6354 4.08868L4.37471 4.32423L4.47562 3.94103L4.21494 3.70548H4.53729L4.6354 3.32228ZM6.45459 3.32228L6.5527 3.70548H6.87506L6.61437 3.94103L6.71248 4.32774L6.45459 4.08868L6.19391 4.32423L6.29202 3.94103L6.03413 3.70548H6.35368L6.45459 3.32228ZM8.27099 3.32228L8.3719 3.70548H8.69145L8.43356 3.94103L8.53167 4.32774L8.27099 4.08868L8.0131 4.32423L8.11121 3.94103L7.85052 3.70548H8.17568L8.27099 3.32228ZM10.0902 3.32228L10.1883 3.70548H10.5106L10.25 3.94103L10.3481 4.32774L10.0902 4.08868L9.82949 4.32423L9.9276 3.94103L9.66972 3.70548H9.98927L10.0902 3.32228ZM1.90801 4.29259L2.00892 4.67579H2.32847L2.07059 4.91134L2.1687 5.29806L1.90801 5.05899L1.65013 5.29454L1.74823 4.91134L1.48755 4.67579H1.81271L1.90801 4.29259ZM3.7272 4.29259L3.82531 4.67579H4.14767L3.88698 4.91134L3.98509 5.29454L3.7272 5.05899L3.46652 5.29454L3.56463 4.91134L3.30674 4.67579H3.62629L3.7272 4.29259ZM5.5436 4.29259L5.64451 4.67579H5.96125L5.70337 4.91134L5.80148 5.29806L5.54079 5.05899L5.28291 5.29454L5.38102 4.91134L5.12033 4.67579H5.44268L5.5436 4.29259ZM7.36279 4.29259L7.4609 4.67579H7.78325L7.52256 4.91134L7.62348 5.29806L7.36279 5.05899L7.1021 5.29454L7.20301 4.91134L6.94233 4.67579H7.26188L7.36279 4.29259ZM9.17918 4.29259L9.28009 4.67579H9.59964L9.34176 4.91134L9.43987 5.29806L9.17918 5.05899L8.9213 5.29454L9.01941 4.91134L8.76152 4.67579H9.08107L9.17918 4.29259ZM10.9984 4.29259L11.0965 4.67579H11.4188L11.1582 4.91134L11.2591 5.29806L10.9984 5.05899L10.7377 5.29454L10.8386 4.91134L10.5779 4.67579H10.9003L10.9984 4.29259ZM2.81901 5.2629L2.91712 5.6461H3.23947L2.97878 5.88165L3.07689 6.26485L2.81901 6.02579L2.55832 6.26485L2.65643 5.87813L2.39855 5.64259H2.7181L2.81901 5.2629ZM4.6354 5.2629L4.73631 5.6461H5.05586L4.79517 5.88165L4.89609 6.26485L4.6354 6.02579L4.37471 6.26485L4.47562 5.87813L4.21494 5.64259H4.53729L4.6354 5.2629ZM6.45459 5.2629L6.5527 5.6461H6.87506L6.61437 5.88165L6.71248 6.26485L6.45459 6.02579L6.19391 6.26485L6.29202 5.87813L6.03413 5.64259H6.35368L6.45459 5.2629ZM8.27099 5.2629L8.3719 5.6461H8.69145L8.43356 5.88165L8.53167 6.26485L8.27099 6.02579L8.0131 6.26485L8.11121 5.87813L7.85052 5.64259H8.17568L8.27099 5.2629ZM10.0902 5.2629L10.1883 5.6461H10.5106L10.25 5.88165L10.3481 6.26485L10.0902 6.02579L9.82949 6.26485L9.9276 5.87813L9.66972 5.64259H9.98927L10.0902 5.2629ZM1.90801 6.2297L2.00892 6.61642H2.32847L2.07059 6.85196L2.1687 7.23165L1.90801 6.9961L1.65013 7.23165L1.74823 6.84845L1.48755 6.6129H1.81271L1.90801 6.2297ZM3.7272 6.2297L3.82531 6.61642H4.14767L3.88698 6.85196L3.98789 7.23165L3.7272 6.9961L3.46652 7.23165L3.56743 6.84845L3.30674 6.6129H3.62629L3.7272 6.2297ZM5.5436 6.2297L5.64451 6.61642H5.96125L5.70337 6.85196L5.80148 7.23165L5.54079 6.9961L5.28291 7.23165L5.38102 6.84845L5.12033 6.6129H5.44268L5.5436 6.2297ZM7.36279 6.2297L7.4609 6.61642H7.78325L7.52256 6.85196L7.62348 7.23165L7.36279 6.9961L7.1021 7.23165L7.20301 6.84845L6.94233 6.6129H7.26188L7.36279 6.2297ZM9.17918 6.2297L9.28009 6.61642H9.59964L9.34176 6.85196L9.43987 7.23165L9.17918 6.9961L8.9213 7.23165L9.01941 6.84845L8.76152 6.6129H9.08107L9.17918 6.2297ZM10.9984 6.2297L11.0965 6.61642H11.4188L11.1582 6.85196L11.2591 7.23165L10.9984 6.9961L10.7377 7.23165L10.8386 6.84845L10.5779 6.6129H10.9003L10.9984 6.2297ZM2.81901 7.20001L2.91712 7.58321H3.23947L2.97878 7.81876L3.07689 8.20548L2.81901 7.96642L2.55832 8.20196L2.65643 7.81876L2.39855 7.58321H2.7181L2.81901 7.20001ZM4.6354 7.20001L4.73631 7.58321H5.05586L4.79517 7.81876L4.89609 8.20548L4.6354 7.96642L4.37471 8.20196L4.47562 7.81876L4.21494 7.58321H4.53729L4.6354 7.20001ZM6.45459 7.20001L6.5527 7.58321H6.87506L6.61437 7.81876L6.71248 8.20548L6.45459 7.96642L6.19391 8.20196L6.29202 7.81876L6.03413 7.58321H6.35368L6.45459 7.20001ZM8.27099 7.20001L8.3719 7.58321H8.69145L8.43356 7.81876L8.53167 8.20548L8.27099 7.96642L8.0131 8.20196L8.11121 7.81876L7.85052 7.58321H8.17568L8.27099 7.20001ZM10.0902 7.20001L10.1883 7.58321H10.5106L10.25 7.81876L10.3481 8.20548L10.0902 7.96642L9.82949 8.20196L9.9276 7.81876L9.66972 7.58321H9.98927L10.0902 7.20001ZM1.90801 8.17032L2.00892 8.55352H2.32847L2.07059 8.78907L2.1687 9.17227L1.90801 8.93673L1.65013 9.17227L1.74823 8.78555L1.48755 8.55001H1.81271L1.90801 8.17032ZM3.7272 8.17032L3.82531 8.55352H4.14767L3.88698 8.78907L3.98789 9.17227L3.7272 8.93673L3.46652 9.17227L3.56743 8.78555L3.30674 8.55001H3.62629L3.7272 8.17032ZM5.5436 8.17032L5.64451 8.55352H5.96125L5.70898 8.78907L5.80708 9.17227L5.5464 8.93673L5.28852 9.17227L5.38662 8.78555L5.12594 8.55001H5.44829L5.5436 8.17032ZM7.36279 8.17032L7.4609 8.55352H7.78325L7.52256 8.78907L7.62348 9.17227L7.36279 8.93673L7.1021 9.17227L7.20301 8.78555L6.94233 8.55001H7.26188L7.36279 8.17032ZM9.17918 8.17032L9.28009 8.55352H9.59964L9.34176 8.78907L9.43987 9.17227L9.17918 8.93673L8.9213 9.17227L9.01941 8.78555L8.76152 8.55001H9.08107L9.17918 8.17032ZM10.9984 8.17032L11.0965 8.55352H11.4188L11.1582 8.78907L11.2591 9.17227L10.9984 8.93673L10.7377 9.17227L10.8386 8.78555L10.5779 8.55001H10.9003L10.9984 8.17032Z" fill="white"/>
</g>
<defs>
<clipPath id="clip0">
<rect width="27" height="18" fill="white"/>
</clipPath>
</defs>
</svg>
