<svg width="43" height="43" viewBox="0 0 43 43" fill="none" xmlns="http://www.w3.org/2000/svg">
<path fill-rule="evenodd" clip-rule="evenodd" d="M21.5 2.6875C16.5106 2.6875 11.7256 4.66952 8.19756 8.19755C4.66953 11.7256 2.6875 16.5106 2.6875 21.5C2.6875 26.4894 4.66953 31.2744 8.19755 34.8024C11.7256 38.3305 16.5106 40.3125 21.5 40.3125C26.4894 40.3125 31.2744 38.3305 34.8024 34.8024C38.3305 31.2744 40.3125 26.4894 40.3125 21.5C40.3125 16.5106 38.3305 11.7256 34.8024 8.19755C31.2744 4.66953 26.4894 2.6875 21.5 2.6875ZM21.5 43C15.7978 43 10.3292 40.7348 6.2972 36.7028C2.26517 32.6708 -1.18904e-06 27.2022 -9.39795e-07 21.5C-6.90546e-07 15.7978 2.26517 10.3292 6.2972 6.2972C10.3292 2.26517 15.7978 -1.18904e-06 21.5 -9.39795e-07C27.2022 -6.90546e-07 32.6708 2.26517 36.7028 6.2972C40.7348 10.3292 43 15.7978 43 21.5C43 27.2022 40.7348 32.6708 36.7028 36.7028C32.6708 40.7348 27.2022 43 21.5 43ZM30.9062 22.8437C31.2626 22.8437 31.6044 22.7022 31.8564 22.4502C32.1084 22.1982 32.25 21.8564 32.25 21.5C32.25 21.1436 32.1084 20.8018 31.8564 20.5498C31.6044 20.2978 31.2626 20.1562 30.9062 20.1562L15.3376 20.1562L21.1076 14.3889C21.3599 14.1366 21.5017 13.7943 21.5017 13.4375C21.5017 13.0807 21.3599 12.7384 21.1076 12.4861C20.8553 12.2338 20.5131 12.0921 20.1562 12.0921C19.7994 12.0921 19.4572 12.2338 19.2049 12.4861L11.1424 20.5486C11.0172 20.6734 10.918 20.8217 10.8502 20.985C10.7825 21.1482 10.7476 21.3232 10.7476 21.5C10.7476 21.6767 10.7825 21.8518 10.8502 22.015C10.918 22.1783 11.0172 22.3266 11.1424 22.4514L19.2049 30.5139C19.4572 30.7662 19.7994 30.9079 20.1562 30.9079C20.5131 30.9079 20.8553 30.7662 21.1076 30.5139C21.3599 30.2616 21.5017 29.9193 21.5017 29.5625C21.5017 29.2057 21.3599 28.8634 21.1076 28.6111L15.3376 22.8437L30.9062 22.8437Z" fill="#F6AB39"/>
</svg>
